<?xml version="1.0" encoding="utf-8"?>
<!-- Generator: Adobe Illustrator 19.0.0, SVG Export Plug-In . SVG Version: 6.00 Build 0)  -->
<svg version="1.1" id="Layer_1" xmlns="http://www.w3.org/2000/svg" xmlns:xlink="http://www.w3.org/1999/xlink" x="0px" y="0px"
	 viewBox="0 0 500 500" style="enable-background:new 0 0 500 500;" xml:space="preserve">
<style type="text/css">
	.st0{fill:#144C99;}
	.st1{font-family:'Helvetica';}
	.st2{font-size:101.1531px;}
	.st3{fill:#329545;}
	.st4{fill:#FDD43B;}
	.st5{font-family:'MyriadPro-Regular';}
	.st6{font-size:12px;}
</style>
<g id="pyshacl_1_">
	<text id="XMLID_195_" transform="matrix(1 0 0 1 46.9486 166.2796)" class="st0 st1 st2">SPARQL</text>
	<path id="XMLID_488_" class="st3" d="M486.7,120.7V65.6v0v-0.1c0-6.9-5.6-12.5-12.5-12.5c0,0,0,0-0.1,0c0,0,0,0-0.1,0H105.1
		c-3.7-8-12-13.6-21.4-15.2c-8.1-1.3-16.4-2-24.5-1.9c-8,0-15.7,0.7-22.4,1.9c-19.9,3.5-23.5,10.9-23.5,24.4v16h83.5h10.4h354.5
		v41.1v12.9c0,0,0,0,0,0v34c13.1,0,25-2.7,25-18.4S486.7,120.7,486.7,120.7L486.7,120.7z M33.8,68.2c-4.9,0-8.8-4-8.8-8.9
		c0-5,3.9-9,8.8-9c4.9,0,8.8,4,8.8,9C42.7,64.2,38.7,68.2,33.8,68.2z"/>
	<path id="XMLID_325_" class="st4" d="M13.3,139.3v55.1v0v0.1c0,6.9,5.6,12.5,12.5,12.5c0,0,0,0,0.1,0c0,0,0,0,0.1,0h368.9
		c3.7,8,12,13.6,21.4,15.2c8.1,1.3,16.4,2,24.5,1.9c8,0,15.7-0.7,22.4-1.9c19.9-3.5,23.5-10.9,23.5-24.4v-16h-83.5h-10.4H38.3v-41.1
		v-12.9c0,0,0,0,0,0v-34c-13.1,0-25,2.7-25,18.4S13.3,139.3,13.3,139.3L13.3,139.3z M466.2,191.8c4.9,0,8.8,4,8.8,8.9
		c0,5-3.9,9-8.8,9c-4.9,0-8.8-4-8.8-9C457.3,195.8,461.3,191.8,466.2,191.8z"/>
</g>
<g id="pyshacl_2_">
	<g id="XMLID_8_">
		<path id="XMLID_9_" class="st0" d="M61.1,359.8c0.2,4.1,1.2,7.5,2.9,10c3.3,4.8,9,7.2,17.2,7.2c3.7,0,7-0.5,10.1-1.6
			c5.9-2,8.8-5.7,8.8-11c0-4-1.2-6.8-3.7-8.4c-2.5-1.6-6.4-3.1-11.8-4.3l-9.8-2.2c-6.4-1.4-11-3-13.6-4.8c-4.6-3-6.9-7.6-6.9-13.6
			c0-6.5,2.3-11.9,6.8-16.1c4.5-4.2,10.9-6.3,19.2-6.3c7.6,0,14.1,1.8,19.4,5.5c5.3,3.7,8,9.5,8,17.6h-9.2c-0.5-3.9-1.5-6.9-3.2-8.9
			c-3-3.8-8.1-5.7-15.3-5.7c-5.8,0-10,1.2-12.5,3.7c-2.5,2.4-3.8,5.3-3.8,8.5c0,3.6,1.5,6.2,4.4,7.8c1.9,1.1,6.3,2.4,13.2,4
			l10.2,2.3c4.9,1.1,8.7,2.7,11.4,4.6c4.6,3.4,6.9,8.3,6.9,14.8c0,8-2.9,13.8-8.8,17.2c-5.8,3.5-12.6,5.2-20.4,5.2
			c-9,0-16.1-2.3-21.2-6.9c-5.1-4.6-7.6-10.8-7.5-18.6H61.1z"/>
		<path id="XMLID_11_" class="st0" d="M123.1,310.6h32.6c6.5,0,11.7,1.8,15.6,5.5c4,3.6,5.9,8.8,5.9,15.3c0,5.7-1.8,10.6-5.3,14.8
			c-3.5,4.2-8.9,6.3-16.2,6.3h-22.8v30.7h-9.8V310.6z M161.4,320.6c-2.2-1-5.2-1.5-8.9-1.5h-19.6v25.1h19.6c4.4,0,8-0.9,10.7-2.8
			c2.7-1.9,4.1-5.2,4.1-9.9C167.3,326.2,165.3,322.5,161.4,320.6z"/>
		<path id="XMLID_14_" class="st0" d="M203.2,310.6h11.1l26.3,72.6h-10.8l-7.4-21.7h-28.7l-7.9,21.7h-10.1L203.2,310.6z
			 M219.4,353.5l-11-32.1l-11.7,32.1H219.4z"/>
		<path id="XMLID_17_" class="st0" d="M250.8,310.6h33.6c5.5,0,10.1,0.8,13.7,2.4c6.8,3.1,10.2,8.8,10.2,17.1
			c0,4.3-0.9,7.9-2.7,10.7c-1.8,2.8-4.3,5-7.5,6.7c2.8,1.2,5,2.7,6.4,4.5s2.2,4.9,2.4,9.1l0.3,9.7c0.1,2.8,0.3,4.8,0.7,6.2
			c0.6,2.3,1.6,3.8,3.2,4.4v1.6H299c-0.3-0.6-0.6-1.4-0.8-2.4c-0.2-1-0.4-2.9-0.5-5.7l-0.6-12.1c-0.2-4.7-2-7.9-5.3-9.5
			c-1.9-0.9-4.8-1.3-8.8-1.3h-22.4v31.1h-9.8V310.6z M283.3,343.9c4.6,0,8.3-0.9,10.9-2.8s4-5.2,4-10c0-5.2-1.9-8.7-5.6-10.6
			c-2-1-4.7-1.5-8.1-1.5h-24v24.8H283.3z"/>
		<path id="XMLID_20_" class="st0" d="M389,383l-4.9,6l-11.2-8.5c-2.7,1.5-5.6,2.7-8.8,3.6c-3.1,0.9-6.6,1.3-10.3,1.3
			c-11.3,0-20.1-3.7-26.5-11.1c-5.6-7.2-8.4-16.2-8.4-27c0-9.8,2.4-18.2,7.3-25.2c6.3-9,15.5-13.4,27.8-13.4
			c12.8,0,22.3,4.1,28.5,12.3c4.8,6.4,7.2,14.6,7.2,24.6c0,4.7-0.6,9.2-1.7,13.5c-1.7,6.6-4.7,12-8.8,16.1L389,383z M360.7,376.1
			c1.8-0.3,3.3-0.8,4.6-1.7l-8-6.2l4.9-6.1l9.5,7.4c3-3.4,5-7.3,6.1-11.5s1.6-8.3,1.6-12.2c0-8.5-2.2-15.4-6.7-20.6
			c-4.5-5.2-10.6-7.8-18.3-7.8c-7.8,0-14,2.5-18.6,7.5c-4.6,5-6.9,12.7-6.9,23c0,8.7,2.2,15.7,6.6,20.8s10.8,7.8,19.3,7.8
			C357,376.5,359,376.4,360.7,376.1z"/>
		<path id="XMLID_23_" class="st0" d="M401.3,310.6h9.8v63.9h36.7v8.6h-46.6V310.6z"/>
	</g>
	<path id="XMLID_4_" class="st3" d="M486.7,337.6v-55.1v0v-0.1c0-6.9-5.6-12.5-12.5-12.5c0,0,0,0-0.1,0c0,0,0,0-0.1,0H105.1
		c-3.7-8-12-13.6-21.4-15.2c-8.1-1.3-16.4-2-24.5-1.9c-8,0-15.7,0.7-22.4,1.9c-19.9,3.5-23.5,10.9-23.5,24.4v16h83.5h10.4h354.5
		v41.1v12.9c0,0,0,0,0,0v34c13.1,0,25-2.7,25-18.4S486.7,337.6,486.7,337.6L486.7,337.6z M33.8,285.1c-4.9,0-8.8-4-8.8-8.9
		c0-5,3.9-9,8.8-9c4.9,0,8.8,4,8.8,9C42.7,281.1,38.7,285.1,33.8,285.1z"/>
	<path id="XMLID_1_" class="st4" d="M13.3,356.2v55.1v0v0.1c0,6.9,5.6,12.5,12.5,12.5c0,0,0,0,0.1,0c0,0,0,0,0.1,0h368.9
		c3.7,8,12,13.6,21.4,15.2c8.1,1.3,16.4,2,24.5,1.9c8,0,15.7-0.7,22.4-1.9c19.9-3.5,23.5-10.9,23.5-24.4v-16h-83.5h-10.4H38.3v-41.1
		v-12.9c0,0,0,0,0,0v-34c-13.1,0-25,2.7-25,18.4S13.3,356.2,13.3,356.2L13.3,356.2z M466.2,408.7c4.9,0,8.8,4,8.8,8.9
		c0,5-3.9,9-8.8,9c-4.9,0-8.8-4-8.8-9C457.3,412.7,461.3,408.7,466.2,408.7z"/>
</g>
<text id="XMLID_7_" transform="matrix(1 0 0 1 218.0383 35.9035)" class="st5 st6">Editable font</text>
<text id="XMLID_25_" transform="matrix(1 0 0 1 218.0385 252.8266)" class="st5 st6">Outlined Font</text>
</svg>
